<svg id="OCI_Logo" data-name="OCI Logo" xmlns="http://www.w3.org/2000/svg" viewBox="0 0 500 100">
  <title>OCI_Logo</title>
  <path id="turquoise" style="fill: #72c7d5" d="M82.67759,11.04209l12.51362,3.4724c.907.26514.94252.91931.07737,1.44958l-36.558,22.98505a4.61374,4.61374,0,0,1-3.23392.49292L2.69914,24.152c-.91137-.26208-.94572-.91753-.07864-1.45086L41.30484.60552a4.62375,4.62375,0,0,1,3.23391-.4942l8.99617,2.68.73176.22409c1.21241.30248,1.38385.7587,1.39125,1.01835a1.18705,1.18705,0,0,1-.51231.87635L32.05245,18.78051c-.86771.53219-.84767,1.19375.0406,1.46514l20.129,5.85939a4.54334,4.54334,0,0,0,3.201-.48171L78.05612,12.0709s1.20053-.5819,2.13986-.98215a3.4837,3.4837,0,0,1,2.48161-.04665"/>
  <path id="orange" style="fill: #feb672" d="M85.42653,51.17384A2.94506,2.94506,0,0,1,87.066,48.50246L97.73143,41.7244A1.34169,1.34169,0,0,1,99.809,42.958l-.00868,29.81717c-.06484,1.17884.01621,1.925-1.86066,3.20854l-11.16539,8.0664c-.90206.57132-1.41257.07839-1.41257-.82715Zm-.48933-7.99055c0,.90312.66256,1.25175,1.56334.68719l11.74319-7.39923A3.104,3.104,0,0,0,99.76355,33.935l.05539-14.54083c0-.90312-.6632-1.53919-1.5627-.97094L86.57408,26.07075a3.64541,3.64541,0,0,0-1.63879,2.67265Z"/>
  <path id="dk-gray" style="fill: #7b7c81" d="M125.05645,58.07517a4.92392,4.92392,0,0,0,.29172,1.72772,3.909,3.909,0,0,0,.84332,1.3587,3.738,3.738,0,0,0,1.31785.89814,4.696,4.696,0,0,0,3.42962,0,3.74273,3.74273,0,0,0,1.31644-.89814,3.88134,3.88134,0,0,0,.84346-1.3587,5.22656,5.22656,0,0,0,0-3.4543,3.94791,3.94791,0,0,0-.84346-1.36877A3.7908,3.7908,0,0,0,130.939,54.083a4.68071,4.68071,0,0,0-3.42962,0,3.78589,3.78589,0,0,0-1.31785.89688,3.97633,3.97633,0,0,0-.84332,1.36877,4.9689,4.9689,0,0,0-.29172,1.72658m-3.07,0a7.59664,7.59664,0,0,1,.53924-2.91919,6.4218,6.4218,0,0,1,1.50781-2.22141,6.6342,6.6342,0,0,1,2.29331-1.406,8.76866,8.76866,0,0,1,5.7971,0,6.68249,6.68249,0,0,1,2.292,1.406,6.42946,6.42946,0,0,1,1.50729,2.22141,8.14321,8.14321,0,0,1,0,5.83072,6.41153,6.41153,0,0,1-1.50729,2.22141,6.65433,6.65433,0,0,1-2.292,1.40981,8.8312,8.8312,0,0,1-5.7971,0,6.60645,6.60645,0,0,1-2.29331-1.40981,6.40391,6.40391,0,0,1-1.50781-2.22141,7.57973,7.57973,0,0,1-.53924-2.91153m27.78627-3.21975a2.847,2.847,0,0,0-1.07031-.81109,3.52133,3.52133,0,0,0-1.468-.28681,3.67921,3.67921,0,0,0-2.77511,1.22116,4.30843,4.30843,0,0,0-.81844,1.36992,5.25895,5.25895,0,0,0,0,3.4543,4.40123,4.40123,0,0,0,.80912,1.36188,3.57517,3.57517,0,0,0,1.20117.895,3.43266,3.43266,0,0,0,1.48853.32314,3.34094,3.34094,0,0,0,1.60764-.3754,3.19891,3.19891,0,0,0,1.15814-1.05927l2.46042,1.8385a5.09223,5.09223,0,0,1-2.15748,1.75526,6.71477,6.71477,0,0,1-2.69034.5652,8.27383,8.27383,0,0,1-2.89613-.48923,6.70109,6.70109,0,0,1-2.2951-1.40981,6.38707,6.38707,0,0,1-1.506-2.22383,8.10981,8.10981,0,0,1,0-5.8283,6.42741,6.42741,0,0,1,1.506-2.22383,6.68992,6.68992,0,0,1,2.2951-1.40484,8.19037,8.19037,0,0,1,2.89613-.49292,7.08712,7.08712,0,0,1,1.18431.10338,6.2667,6.2667,0,0,1,1.21189.33359,5.188,5.188,0,0,1,1.14372.60369A4.58749,4.58749,0,0,1,152.04547,53Zm8.096-3.483h2.95587V64.76732h-2.95587Z"/>
  <path id="lt-gray" style="fill: #a5a4a8" d="M189.23554,51.85657h1.20614l3.13051,11.13064h.03434l3.18336-11.13064h1.49223l3.18094,11.13064h.03434l3.12924-11.13064h1.20614l-3.66095,12.5671h-1.43925l-3.17914-11.18214h-.03984l-3.17722,11.18214h-1.438Zm20.1908,12.5671h7.977V63.35815H210.5989v-4.8984h6.115V57.39487h-6.115v-4.4752h6.52516v-1.0631h-7.69773Zm25.9662-4.40038h-5.77719l2.93162-6.89317Zm-8.88587,4.40038h1.22683l1.41934-3.33919h6.66724l1.36521,3.33919h1.32078l-5.30395-12.5671H231.9965Zm16.76-11.504h2.48455a4.1476,4.1476,0,0,1,1.50232.22906,2.47818,2.47818,0,0,1,.8958.57017,1.75294,1.75294,0,0,1,.4375.72823,2.15835,2.15835,0,0,1,0,1.41784,1.705,1.705,0,0,1-.4375.727,2.3729,2.3729,0,0,1-.8958.567,3.95283,3.95283,0,0,1-1.50232.23595h-2.48455Zm-1.17193,11.504h1.17193V58.45975h2.18722l3.53571,5.96392h1.33395l-3.66224-6.03734a6.18263,6.18263,0,0,0,1.079-.24653,3.29174,3.29174,0,0,0,1.04414-.54213,2.91474,2.91474,0,0,0,.78295-.95041,3.16,3.16,0,0,0,.306-1.49,3.23606,3.23606,0,0,0-.26426-1.38674,2.86436,2.86436,0,0,0-1.59641-1.51,6.24519,6.24519,0,0,0-1.01721-.28247,5.703,5.703,0,0,0-.92018-.1021c-.28609-.01555-.5086-.01938-.67442-.01938h-3.30619Zm12.31422,0h7.9782V63.35815h-6.80576v-4.8984h6.11383V57.39487h-6.11383v-4.4752h6.52337v-1.0631H254.409Zm17.93247-1.58024a4.14679,4.14679,0,0,0,1.7939,1.46144,5.88469,5.88469,0,0,0,2.29267.43748,4.78115,4.78115,0,0,0,1.47794-.23021,3.83509,3.83509,0,0,0,1.25427-.68222,3.273,3.273,0,0,0,.85827-1.1123,3.39732,3.39732,0,0,0,.31979-1.50682,3.08638,3.08638,0,0,0-.48179-1.8404,3.32,3.32,0,0,0-1.1944-1.03327,7.332,7.332,0,0,0-1.56577-.59618,12.98366,12.98366,0,0,1-1.56283-.516,3.42017,3.42017,0,0,1-1.203-.7986,2.01746,2.01746,0,0,1-.47694-1.44652,2.28742,2.28742,0,0,1,.22634-1.04869,2.3421,2.3421,0,0,1,.61648-.73818,2.73688,2.73688,0,0,1,.89886-.43938,3.82783,3.82783,0,0,1,1.08333-.15194,3.01036,3.01036,0,0,1,1.41628.31064,2.95428,2.95428,0,0,1,1.03853.9304l1.01414-.72811a3.63026,3.63026,0,0,0-1.52594-1.215,4.9065,4.9065,0,0,0-1.90994-.36405,5.26784,5.26784,0,0,0-1.52594.22154,3.96954,3.96954,0,0,0-1.28912.65851,3.08715,3.08715,0,0,0-.88827,1.08171,3.245,3.245,0,0,0-.32847,1.4826,3.54646,3.54646,0,0,0,.27486,1.48948,2.792,2.792,0,0,0,.738,1.0014,3.89462,3.89462,0,0,0,1.03853.64793c.38528.16686.78295.315,1.19006.44563.41.13015.80529.26144,1.19491.39031a5.68158,5.68158,0,0,1,1.03661.47241,2.22949,2.22949,0,0,1,.73993.70083,1.97921,1.97921,0,0,1,.27549,1.083,2.26206,2.26206,0,0,1-.22315,1.01887,2.3331,2.3331,0,0,1-.604.77616,2.962,2.962,0,0,1-.8995.49675,3.42362,3.42362,0,0,1-1.1021.17667,3.57809,3.57809,0,0,1-1.67988-.39082,3.01145,3.01145,0,0,1-1.19874-1.19069Zm12.55167-4.70363a6.27363,6.27363,0,0,1,.374-2.18343,5.17287,5.17287,0,0,1,1.06342-1.75882,5.06971,5.06971,0,0,1,1.683-1.17514,6.00424,6.00424,0,0,1,4.4227,0,5.06618,5.06618,0,0,1,1.68181,1.17514,5.15606,5.15606,0,0,1,1.06406,1.75882,6.53887,6.53887,0,0,1,0,4.36621,5.13768,5.13768,0,0,1-1.06406,1.75768,4.98606,4.98606,0,0,1-1.68181,1.17514,5.98066,5.98066,0,0,1-4.4227,0,4.98954,4.98954,0,0,1-1.683-1.17514,5.15438,5.15438,0,0,1-1.06342-1.75768,6.28663,6.28663,0,0,1-.374-2.18279m-1.17257,0a7.17011,7.17011,0,0,0,.48192,2.65468,6.22122,6.22122,0,0,0,1.33023,2.0919,5.92108,5.92108,0,0,0,2.05331,1.37055,7.41444,7.41444,0,0,0,5.27727,0,5.92678,5.92678,0,0,0,2.05267-1.37055,6.27634,6.27634,0,0,0,1.33266-2.0919,7.54094,7.54094,0,0,0,0-5.30171,6.29988,6.29988,0,0,0-1.33266-2.08323,6.00246,6.00246,0,0,0-2.05267-1.3768,7.23213,7.23213,0,0,0-5.27727,0,5.99657,5.99657,0,0,0-2.05331,1.3768,6.244,6.244,0,0,0-1.33023,2.08323,7.099,7.099,0,0,0-.48192,2.647m16.61219,6.28387h1.17385V58.45975h5.91865V57.39487h-5.91865v-4.4752h6.3606v-1.0631h-7.53445Zm14.44923,0h1.17372v-11.504h4.29989v-1.0631h-9.77784v1.0631H314.782Zm11.80868,0h1.43747l3.1803-11.18214h.04047l3.17787,11.18214h1.44181l3.65841-12.5671h-1.205l-3.12732,11.13064h-.03613l-3.184-11.13064h-1.4948L327.3012,62.98721h-.03611l-3.12925-11.13064h-1.20678Zm23.06573-4.40038h-5.77974l2.93162-6.89317Zm-8.88587,4.40038h1.22861l1.41436-3.33919h6.668l1.36942,3.33919h1.31593l-5.301-12.5671H346.2616Zm16.22512-11.504h2.48582a4.14116,4.14116,0,0,1,1.5004.22906,2.51683,2.51683,0,0,1,.8958.57017,1.81486,1.81486,0,0,1,.4426.72823,2.27331,2.27331,0,0,1,0,1.41784,1.76342,1.76342,0,0,1-.4426.727,2.40817,2.40817,0,0,1-.8958.567,3.94664,3.94664,0,0,1-1.5004.23595h-2.48582Zm-1.17321,11.504h1.17321V58.45975h2.18671l3.533,5.96392h1.33647l-3.66209-6.03734a6.102,6.102,0,0,0,1.0771-.24653,3.32776,3.32776,0,0,0,1.04476-.54213,2.90016,2.90016,0,0,0,.78346-.95041,3.1742,3.1742,0,0,0,.3092-1.49,3.26536,3.26536,0,0,0-.263-1.38674,2.93358,2.93358,0,0,0-.67825-.9392,2.8411,2.8411,0,0,0-.92633-.57081,6.03822,6.03822,0,0,0-1.01223-.28247,5.74777,5.74777,0,0,0-.92069-.1021c-.28545-.01555-.50873-.01938-.6757-.01938h-3.30568Zm11.504,0h7.97948V63.35815h-6.80448v-4.8984h6.1137V57.39487h-6.1137v-4.4752h6.5226v-1.0631h-7.6976Zm19.50755,0h7.97948V63.35815h-6.80754v-4.8984h6.11626V57.39487h-6.11626v-4.4752h6.52452v-1.0631h-7.69645Zm12.31613,0H400.322V53.41578h.03357l7.65726,11.00789h1.51534V51.85657h-1.17383V62.862h-.03423l-7.65841-11.00547h-1.51164Zm25.19436-6.77985h-4.19508v1.06552H423.172v4.22243a4.8723,4.8723,0,0,1-1.62017.58572,10.52153,10.52153,0,0,1-1.90113.16176,5.51407,5.51407,0,0,1-2.20854-.42512,4.99419,4.99419,0,0,1-1.68615-1.17386,5.3228,5.3228,0,0,1-1.06838-1.75513,6.68125,6.68125,0,0,1,0-4.36876,5.34041,5.34041,0,0,1,1.06838-1.7601,5.01231,5.01231,0,0,1,1.68615-1.16953,5.45152,5.45152,0,0,1,2.20854-.42511,5.07479,5.07479,0,0,1,1.05027.114,5.59853,5.59853,0,0,1,1.023.32173,4.75687,4.75687,0,0,1,.90257.49356,3.386,3.386,0,0,1,.69946.633l.86018-.89a6.1159,6.1159,0,0,0-4.53543-1.73716,6.77524,6.77524,0,0,0-2.63557.49726,5.97505,5.97505,0,0,0-2.05267,1.37552A6.26017,6.26017,0,0,0,413.626,55.494a7.56978,7.56978,0,0,0,0,5.29853,6.2506,6.2506,0,0,0,1.33649,2.09624,5.9309,5.9309,0,0,0,2.05267,1.36813,6.90071,6.90071,0,0,0,2.63557.48426,11.21857,11.21857,0,0,0,2.4105-.25838,8.11787,8.11787,0,0,0,2.28322-.87508Zm5.22748,6.77985h1.16568V51.85415h-1.16568Zm6.39737,0H437.143V53.41578h.03064l7.66147,11.00789H446.348V51.85657h-1.17436V62.862H445.14l-7.66224-11.00547h-1.50847Zm15.60112,0h7.98445V63.35815h-6.80691v-4.8984h6.10745V57.39487h-6.10745v-4.4752h6.51762v-1.0631h-7.69517Zm12.32049,0h7.97946V63.35815h-6.807v-4.8984h6.11194V57.39487h-6.11194v-4.4752h6.52145v-1.0631h-7.69388Zm13.48664-11.504h2.48659a4.11409,4.11409,0,0,1,1.5004.22906,2.54673,2.54673,0,0,1,.8995.57017,1.8279,1.8279,0,0,1,.43941.72823,2.30793,2.30793,0,0,1,0,1.41784,1.77574,1.77574,0,0,1-.43941.727,2.436,2.436,0,0,1-.8995.567,3.92142,3.92142,0,0,1-1.5004.23595h-2.48659Zm-1.1718,11.504h1.1718V58.45975h2.18544l3.53814,5.96392h1.33457l-3.66146-6.03734a6.28188,6.28188,0,0,0,1.07963-.24653,3.33648,3.33648,0,0,0,1.0435-.54213,2.87827,2.87827,0,0,0,.78346-.95041,3.17719,3.17719,0,0,0,.3023-1.49,3.23923,3.23923,0,0,0-.26171-1.38674,2.82928,2.82928,0,0,0-1.59641-1.51,6.24223,6.24223,0,0,0-1.01861-.28247,5.68732,5.68732,0,0,0-.91814-.1021c-.28494-.01555-.51307-.01938-.67571-.01938H476.2057Zm11.53255-1.58024a4.165,4.165,0,0,0,1.79824,1.46144,5.85269,5.85269,0,0,0,2.29152.43748,4.797,4.797,0,0,0,1.47666-.23021,3.88382,3.88382,0,0,0,1.25108-.68222,3.29328,3.29328,0,0,0,1.17691-2.61912,3.14141,3.14141,0,0,0-.475-1.8404,3.38192,3.38192,0,0,0-1.19938-1.03327,7.15791,7.15791,0,0,0-1.567-.59618,13.17137,13.17137,0,0,1-1.56092-.516,3.45433,3.45433,0,0,1-1.20551-.7986,2.014,2.014,0,0,1-.475-1.44652A2.14063,2.14063,0,0,1,490.095,53.193a2.70212,2.70212,0,0,1,.89644-.43938,3.86938,3.86938,0,0,1,1.08653-.15194,2.97965,2.97965,0,0,1,1.41308.31064,2.916,2.916,0,0,1,1.03789.9304l1.0135-.72811a3.619,3.619,0,0,0-1.519-1.215,4.91423,4.91423,0,0,0-1.9125-.36405,5.299,5.299,0,0,0-1.529.22154,3.89945,3.89945,0,0,0-1.28529.65851,3.16685,3.16685,0,0,0-.8921,1.08171,3.23609,3.23609,0,0,0-.32592,1.4826,3.49956,3.49956,0,0,0,.27422,1.48948,2.82969,2.82969,0,0,0,.73929,1.0014,3.79282,3.79282,0,0,0,1.03789.64793q.57965.25029,1.19312.44563c.40762.13015.79788.26144,1.18738.39031a5.66133,5.66133,0,0,1,1.04223.47241,2.14787,2.14787,0,0,1,.7375.70083,1.99,1.99,0,0,1,.27294,1.083,2.25366,2.25366,0,0,1-.22315,1.01887,2.31972,2.31972,0,0,1-.60205.77616,2.99858,2.99858,0,0,1-.89516.49675,3.44806,3.44806,0,0,1-1.10338.17667,3.59275,3.59275,0,0,1-1.68551-.39082,2.993,2.993,0,0,1-1.19363-1.19069Zm10.55632.83582a.8474.8474,0,0,0,.8515.8515.85456.85456,0,1,0,0-1.70911.85609.85609,0,0,0-.8515.85762"/>
  <path id="blue" style="fill: #255aa8" d="M37.90572,54.85351a2.38251,2.38251,0,0,0-1.60509-2.11243L16.50253,46.67315a1.14973,1.14973,0,0,0-1.6033,1.12479V71.18427a2.37543,2.37543,0,0,0,1.6033,2.11128l19.79811,6.06908a1.151,1.151,0,0,0,1.60509-1.12275Zm16.75862,43.9297a1.17292,1.17292,0,0,1-1.6107,1.15016L1.612,84.95072A2.33536,2.33536,0,0,1,0,82.86443V28.43723a1.17063,1.17063,0,0,1,1.612-1.14774L53.05364,42.26958a2.33586,2.33586,0,0,1,1.6107,2.08757Zm121.07138-25.6196a.96664.96664,0,0,1-.96742-.96481V44.27506a.96557.96557,0,0,1,1.93113,0V72.1988a.96381.96381,0,0,1-.96372.96481"/>
</svg>
