<svg xmlns="http://www.w3.org/2000/svg" viewBox="0 0 500 117">
  <path d="M63.84 115.57a1.37 1.37 0 0 1-1.84 1.35L1.88 99.39A2.73 2.73 0 0 1 0 97V33.27a1.36 1.36 0 0 1 1.88-1.34L62 49.45a2.74 2.74 0 0 1 1.88 2.45v63.67zM44.28 64.18a2.79 2.79 0 0 0-1.88-2.47L19.27 54.6a1.35 1.35 0 0 0-1.87 1.33v27.36a2.8 2.8 0 0 0 1.87 2.47l23.13 7.1a1.35 1.35 0 0 0 1.88-1.31V64.18z" fill="#285ba8"/>
  <path d="M96.56 12.92L111.17 17c1.06.31 1.1 1.08.1 1.7L68.56 45.57a5.34 5.34 0 0 1-3.77.58L3.16 28.26c-1.07-.31-1.11-1.07-.1-1.7L48.24.71A5.35 5.35 0 0 1 52 .13l10.52 3.14.86.26c1.41.35 1.62.89 1.63 1.2a1.43 1.43 0 0 1-.61 1L37.43 22c-1 .63-1 1.4 0 1.72L61 30.54a5.28 5.28 0 0 0 3.73-.54l26.43-15.88s1.4-.68 2.5-1.14a4 4 0 0 1 2.9-.06" fill="#72ccd7"/>
  <path d="M99.77 59.87a3.44 3.44 0 0 1 1.91-3.12l12.45-7.93a1.57 1.57 0 0 1 2.44 1.44v34.89c-.08 1.38 0 2.25-2.18 3.75l-13 9.44c-1 .67-1.65.09-1.65-1l.08-37.5zm-.58-26.24v16.9c0 1 .77 1.46 1.82.8l13.71-8.65a3.64 3.64 0 0 0 1.78-3l.07-17c0-1.06-.78-1.79-1.83-1.13l-13.63 8.95a4.27 4.27 0 0 0-1.92 3.13z" fill="#fbb573"/>
  <path d="M145.72 37.59a11 11 0 0 1 .78-4.22 9.22 9.22 0 0 1 2.18-3.22 9.6 9.6 0 0 1 3.32-2 12.72 12.72 0 0 1 8.38 0 9.56 9.56 0 0 1 3.31 2 9.22 9.22 0 0 1 2.18 3.22 11.81 11.81 0 0 1 0 8.44 9.32 9.32 0 0 1-2.18 3.19 9.56 9.56 0 0 1-3.31 2 12.72 12.72 0 0 1-8.38 0 9.6 9.6 0 0 1-3.32-2 9.32 9.32 0 0 1-2.18-3.22 11 11 0 0 1-.78-4.19zm4.44 0a7 7 0 0 0 .43 2.51 5.59 5.59 0 0 0 3.12 3.27 6.89 6.89 0 0 0 4.95 0 5.68 5.68 0 0 0 1.91-1.3 5.94 5.94 0 0 0 1.22-2 7.68 7.68 0 0 0 0-5 5.89 5.89 0 0 0-1.22-2 5.54 5.54 0 0 0-1.91-1.3 6.75 6.75 0 0 0-4.95 0 5.5 5.5 0 0 0-1.9 1.3 5.59 5.59 0 0 0-1.22 2 7 7 0 0 0-.43 2.52zm24.32-9.7h7.23a17.94 17.94 0 0 1 2.53.18 6.54 6.54 0 0 1 2.29.71 4.2 4.2 0 0 1 1.64 1.49 4.5 4.5 0 0 1 .63 2.55 4.07 4.07 0 0 1-.91 2.73 5.06 5.06 0 0 1-2.42 1.55 5.47 5.47 0 0 1 1.73.53 4.9 4.9 0 0 1 1.35 1 4.55 4.55 0 0 1 .87 1.44 5.31 5.31 0 0 1 .29 1.75 4.75 4.75 0 0 1-.65 2.56 5.12 5.12 0 0 1-1.71 1.66A7.34 7.34 0 0 1 185 47a12.83 12.83 0 0 1-2.59.28h-8zm4.28 7.76h3.09a4.44 4.44 0 0 0 1-.12 2.64 2.64 0 0 0 .86-.35 1.78 1.78 0 0 0 .62-.66 2 2 0 0 0 .23-1 1.83 1.83 0 0 0-.25-1 1.89 1.89 0 0 0-.68-.61 2.92 2.92 0 0 0-.93-.32 6 6 0 0 0-1-.1h-2.9zm0 8h3.83a4.94 4.94 0 0 0 1-.11 2.67 2.67 0 0 0 .92-.38 2.18 2.18 0 0 0 .66-.72 2 2 0 0 0 .27-1.06 1.75 1.75 0 0 0-.34-1.11 2.17 2.17 0 0 0-.87-.65 4.5 4.5 0 0 0-1.12-.3 9.21 9.21 0 0 0-1.12-.08h-3.23zm28.43-2.88a13.92 13.92 0 0 1-.19 2.63 5.72 5.72 0 0 1-.89 2.23 4.51 4.51 0 0 1-1.88 1.56 7.37 7.37 0 0 1-3.18.59 6.66 6.66 0 0 1-3.89-1.1 5.17 5.17 0 0 1-2.06-3.42l3.91-1a1.87 1.87 0 0 0 .65 1.2 1.89 1.89 0 0 0 1.27.5 1.72 1.72 0 0 0 1.16-.37 2.23 2.23 0 0 0 .6-.92 4.41 4.41 0 0 0 .23-1.19V27.89h4.28zM216 27.89h13.17v3.94h-8.9v3.62h8.41v3.94h-8.41v4h9.39v3.95H216zm34.7 5a4.19 4.19 0 0 0-1.55-1.18 5.43 5.43 0 0 0-6.15 1.4 6.13 6.13 0 0 0-1.18 2 7.51 7.51 0 0 0 0 5 6.33 6.33 0 0 0 1.16 2 5.4 5.4 0 0 0 1.74 1.3 5 5 0 0 0 2.15.46 4.56 4.56 0 0 0 4-2.08l3.56 2.66a7.42 7.42 0 0 1-3.15 2.55 9.81 9.81 0 0 1-3.89.82 12 12 0 0 1-4.19-.71 9.47 9.47 0 0 1-3.31-2 9.18 9.18 0 0 1-2.18-3.22 11.81 11.81 0 0 1 0-8.44 9.09 9.09 0 0 1 2.18-3.22 9.47 9.47 0 0 1 3.31-2 11.81 11.81 0 0 1 4.19-.71 10.23 10.23 0 0 1 1.71.15 7.93 7.93 0 0 1 1.76.48 7.31 7.31 0 0 1 1.65.88 6.46 6.46 0 0 1 1.43 1.34zm14.76-1.26h-5.53v-3.74h15.34v3.78h-5.54v15.62h-4.27zm39.17 1.26a4.22 4.22 0 0 0-1.63-1.14 5.21 5.21 0 0 0-2.12-.41 5.25 5.25 0 0 0-4 1.77 6.13 6.13 0 0 0-1.18 2 7.33 7.33 0 0 0-.42 2.5 7.18 7.18 0 0 0 .42 2.51 6.11 6.11 0 0 0 1.17 2 5.33 5.33 0 0 0 1.73 1.29 4.93 4.93 0 0 0 2.15.47 4.75 4.75 0 0 0 2.33-.55 4.4 4.4 0 0 0 1.67-1.54l3.56 2.66a7.35 7.35 0 0 1-3.1 2.55 9.65 9.65 0 0 1-3.89.83 11.82 11.82 0 0 1-4.19-.72 9.29 9.29 0 0 1-3.31-2 9.18 9.18 0 0 1-2.18-3.21 11.81 11.81 0 0 1 0-8.44 9.32 9.32 0 0 1 2.18-3.22 9.71 9.71 0 0 1 3.31-2 12 12 0 0 1 4.19-.71 10.23 10.23 0 0 1 1.71.15 9.39 9.39 0 0 1 1.76.48 8.16 8.16 0 0 1 1.65.87 6.75 6.75 0 0 1 1.43 1.35zm10 4.66a11 11 0 0 1 .78-4.22 9.46 9.46 0 0 1 2.18-3.22 9.71 9.71 0 0 1 3.31-2 12.72 12.72 0 0 1 8.38 0 9.75 9.75 0 0 1 3.32 2 9.46 9.46 0 0 1 2.18 3.22 11.95 11.95 0 0 1 0 8.44 9.31 9.31 0 0 1-5.5 5.26 12.55 12.55 0 0 1-8.38 0 9.33 9.33 0 0 1-5.49-5.26 11 11 0 0 1-.86-4.18zm4.44 0a7 7 0 0 0 .43 2.51 5.56 5.56 0 0 0 1.21 2 5.71 5.71 0 0 0 1.9 1.29 6.78 6.78 0 0 0 5 0 5.52 5.52 0 0 0 1.9-1.29 5.73 5.73 0 0 0 1.22-2 7 7 0 0 0 .43-2.51 7.1 7.1 0 0 0-.43-2.5 5.73 5.73 0 0 0-1.22-2 5.56 5.56 0 0 0-1.9-1.31 6.92 6.92 0 0 0-5 0 5.76 5.76 0 0 0-1.9 1.31 5.56 5.56 0 0 0-1.21 2 7.1 7.1 0 0 0-.5 2.54zm24.32-9.7h6.46l4.47 12.66h.06l4.49-12.66h6.43v19.4H361V32.41h-.05l-5.1 14.88h-3.26l-4.91-14.88h-.05v14.88h-4.27zm30.79 0h7.2a14.51 14.51 0 0 1 2.85.27 6.44 6.44 0 0 1 2.34.95 4.72 4.72 0 0 1 1.58 1.81 6.06 6.06 0 0 1 .6 2.86 6.49 6.49 0 0 1-.56 2.85 4.63 4.63 0 0 1-1.5 1.84 6.22 6.22 0 0 1-2.27 1 13.45 13.45 0 0 1-2.86.29h-3.11v7.56h-4.35zm4.27 8.22h2.84a5 5 0 0 0 1.11-.11 2.71 2.71 0 0 0 1-.37 2 2 0 0 0 .69-.71 2.32 2.32 0 0 0 .26-1.14 1.91 1.91 0 0 0-.34-1.19 2.42 2.42 0 0 0-.88-.7 3.42 3.42 0 0 0-1.19-.31 11.13 11.13 0 0 0-1.26-.07h-2.19zm34.26 3.7a9.07 9.07 0 0 1-.61 3.23 6.89 6.89 0 0 1-1.53 2.52 7.11 7.11 0 0 1-2.57 1.66 9.63 9.63 0 0 1-3.53.61 9.76 9.76 0 0 1-3.56-.61 7.07 7.07 0 0 1-2.56-1.67A6.93 6.93 0 0 1 396.8 43a9.55 9.55 0 0 1-.52-3.18V27.89h4.27v11.76a4.8 4.8 0 0 0 .29 1.67 4.1 4.1 0 0 0 .81 1.33 3.66 3.66 0 0 0 1.24.87 4 4 0 0 0 1.58.32 3.82 3.82 0 0 0 1.56-.32 3.72 3.72 0 0 0 1.23-.87 4.1 4.1 0 0 0 .81-1.33 4.8 4.8 0 0 0 .29-1.67V27.89h4.27zm12.63-8.14h-5.54v-3.74h15.34v3.78h-5.53v15.62h-4.27zm16.85-3.78h4.26v19.4h-4.26zm13.08 0H461l8.24 13.49h.06V27.89h4.27v19.4H468l-8.46-13.8v13.8h-4.28zm44.81 18a15.65 15.65 0 0 1-3.94 1.43 20.3 20.3 0 0 1-4.2.44 11.86 11.86 0 0 1-4.19-.72 9.4 9.4 0 0 1-5.49-5.26 11.81 11.81 0 0 1 0-8.44 9.2 9.2 0 0 1 2.19-3.22 9.57 9.57 0 0 1 3.3-2 12.08 12.08 0 0 1 4.19-.71 15.31 15.31 0 0 1 4.29.56 8.38 8.38 0 0 1 3.44 1.93l-3 3.29a6.28 6.28 0 0 0-2-1.38 7.28 7.28 0 0 0-2.75-.46 6.54 6.54 0 0 0-2.47.46 5.7 5.7 0 0 0-1.91 1.31 5.89 5.89 0 0 0-1.22 2 7.33 7.33 0 0 0-.41 2.5 7.19 7.19 0 0 0 .41 2.51 5.89 5.89 0 0 0 1.22 2 5.65 5.65 0 0 0 1.91 1.29 6.18 6.18 0 0 0 2.47.47 8.09 8.09 0 0 0 2.41-.32 9.38 9.38 0 0 0 1.63-.64v-3.16h-3.49v-3.95H500zm-351.39 21.3h4.29a7.62 7.62 0 0 1 1 .11 6.93 6.93 0 0 1 1.09.31 3.16 3.16 0 0 1 1 .62 3.24 3.24 0 0 1 .73 1 3.7 3.7 0 0 1 .28 1.49 3.47 3.47 0 0 1-.33 1.61 3.22 3.22 0 0 1-.85 1 3.51 3.51 0 0 1-1.12.58 7.1 7.1 0 0 1-1.16.27l3.94 6.52h-1.44l-3.81-6.44H150v6.44h-1.26zm1.26 6h2.69a4.38 4.38 0 0 0 1.62-.25 2.66 2.66 0 0 0 1-.62 1.88 1.88 0 0 0 .47-.78 2.32 2.32 0 0 0 0-1.53 1.91 1.91 0 0 0-.47-.79 2.78 2.78 0 0 0-1-.61 4.38 4.38 0 0 0-1.62-.25H150zm15.47-6h8.29v1.15h-7v4.83h6.59v1.15h-6.59v5.29H174v1.15h-8.59zm17.49 12.76a.88.88 0 0 1 .26-.65.93.93 0 0 1 1.31 0 .92.92 0 0 1 .26.65.92.92 0 0 1-1.57.65.85.85 0 0 1-.26-.65zm1.49-2.76h-1.15v-10h1.15zm10.82-10h1.9l4.94 11.38L207 67.15h1.81v13.57h-1.27v-12l-5.17 12h-.56l-5.25-12v12h-1.27zm27.07 0h1.31l5.7 13.57h-1.42l-1.47-3.61h-7.18l-1.54 3.61h-1.32zm.59 1.38L219.73 76H226zm25.31 11.3a8.75 8.75 0 0 1-2.46 1 11.9 11.9 0 0 1-2.6.28 7.38 7.38 0 0 1-2.85-.53 6.25 6.25 0 0 1-2.2-1.47 6.72 6.72 0 0 1-1.44-2.26 7.67 7.67 0 0 1-.52-2.87 7.53 7.53 0 0 1 .52-2.85 6.58 6.58 0 0 1 1.44-2.25 6.3 6.3 0 0 1 2.2-1.49 7.57 7.57 0 0 1 2.85-.54 6.59 6.59 0 0 1 4.87 1.83l-.92 1a4.22 4.22 0 0 0-.76-.68 4.86 4.86 0 0 0-1-.53 5.87 5.87 0 0 0-1.1-.35 5.52 5.52 0 0 0-1.13-.13 6 6 0 0 0-2.38.46 5.37 5.37 0 0 0-1.82 1.27 5.6 5.6 0 0 0-1.14 1.9 6.67 6.67 0 0 0-.4 2.35 6.76 6.76 0 0 0 .4 2.36 5.6 5.6 0 0 0 1.14 1.9 5.35 5.35 0 0 0 1.82 1.26 5.84 5.84 0 0 0 2.38.46 11.12 11.12 0 0 0 2.05-.17 5.62 5.62 0 0 0 1.75-.63v-4.61h-3.26V73.4h4.52zm9.46-12.68h1.27v13.57h-1.27zm10.73 0H270L278.26 79V67.15h1.27v13.57h-1.63l-8.26-11.88v11.88h-1.26zm20.65 0h8.29v1.15h-7v4.83h6.6v1.15h-6.6v5.29h7.34v1.15H289zm26.24 1.15h-4.63v-1.15h10.53v1.15h-4.63v12.42h-1.27zm10.94 5.63a7.53 7.53 0 0 1 .52-2.85 6.71 6.71 0 0 1 1.43-2.25 6.48 6.48 0 0 1 2.22-1.49 7.44 7.44 0 0 1 2.84-.54 7.57 7.57 0 0 1 2.85.54 6.44 6.44 0 0 1 2.21 1.49 6.89 6.89 0 0 1 1.44 2.25 7.73 7.73 0 0 1 .52 2.85 7.87 7.87 0 0 1-.52 2.87 7 7 0 0 1-1.44 2.26 6.39 6.39 0 0 1-2.21 1.47 7.38 7.38 0 0 1-2.85.53 7.26 7.26 0 0 1-2.84-.53 6.43 6.43 0 0 1-2.22-1.47 6.85 6.85 0 0 1-1.43-2.26 7.67 7.67 0 0 1-.52-2.87zm1.27 0a6.76 6.76 0 0 0 .4 2.36 5.62 5.62 0 0 0 1.15 1.9 5.21 5.21 0 0 0 1.81 1.26 5.88 5.88 0 0 0 2.38.46 6 6 0 0 0 2.39-.46 5.41 5.41 0 0 0 1.81-1.26 5.62 5.62 0 0 0 1.15-1.9 7 7 0 0 0 .4-2.36 6.9 6.9 0 0 0-.4-2.35 5.62 5.62 0 0 0-1.15-1.9 5.43 5.43 0 0 0-1.81-1.27 6.13 6.13 0 0 0-2.39-.46 6 6 0 0 0-2.38.46 5.24 5.24 0 0 0-1.84 1.27 5.62 5.62 0 0 0-1.15 1.9 6.67 6.67 0 0 0-.37 2.35zm31 5.9a8.53 8.53 0 0 1-2.46 1 11.83 11.83 0 0 1-2.6.28 7.29 7.29 0 0 1-2.84-.53 6.39 6.39 0 0 1-2.21-1.47 6.72 6.72 0 0 1-1.44-2.26 7.87 7.87 0 0 1-.52-2.87 7.73 7.73 0 0 1 .52-2.85 6.58 6.58 0 0 1 1.44-2.25 6.44 6.44 0 0 1 2.21-1.49 7.48 7.48 0 0 1 2.84-.54 6.59 6.59 0 0 1 4.89 1.88l-.92 1a4.22 4.22 0 0 0-.76-.68 4.78 4.78 0 0 0-1-.53 6 6 0 0 0-1.11-.35 5.44 5.44 0 0 0-1.13-.13 6 6 0 0 0-2.38.46 5.24 5.24 0 0 0-1.81 1.27 5.62 5.62 0 0 0-1.15 1.9 6.67 6.67 0 0 0-.4 2.35 6.76 6.76 0 0 0 .4 2.36 5.62 5.62 0 0 0 1.15 1.9 5.21 5.21 0 0 0 1.8 1.17 5.88 5.88 0 0 0 2.38.46 11.12 11.12 0 0 0 2-.17 5.62 5.62 0 0 0 1.75-.63v-4.57H354V73.4h4.52zm9.46-12.68h8.3v1.15h-7v4.83h6.59v1.15h-6.63v5.29h7.34v1.15h-8.61zm20.12 1.15h-4.64v-1.15H394v1.15h-4.64v12.42h-1.26zm13.73-1.15h1.27v6h7.59v-6h1.26v13.57h-1.26v-6.44h-7.59v6.44h-1.27zm19.58 0h8.29v1.15h-7v4.83h6.58v1.15h-6.58v5.29H430v1.15h-8.6zm17.11 0h4.25a7.3 7.3 0 0 1 1 .11 6.74 6.74 0 0 1 1.1.31 3 3 0 0 1 1 .62 3 3 0 0 1 .73 1 3.53 3.53 0 0 1 .29 1.49 3.34 3.34 0 0 1-.34 1.61 3.07 3.07 0 0 1-.84 1 3.62 3.62 0 0 1-1.12.58 7 7 0 0 1-1.17.27l3.95 6.52h-1.43l-3.81-6.44h-2.36v6.44h-1.26zm1.26 6h2.68a4.34 4.34 0 0 0 1.62-.25 2.62 2.62 0 0 0 1-.62 2 2 0 0 0 .47-.78 2.5 2.5 0 0 0 0-1.53 2 2 0 0 0-.47-.79 2.74 2.74 0 0 0-1-.61 4.34 4.34 0 0 0-1.62-.25h-2.68z" fill="#72767c"/>
</svg>
