<?xml version="1.0" encoding="utf-8"?>
<!-- Generator: Adobe Illustrator 26.2.1, SVG Export Plug-In . SVG Version: 6.00 Build 0)  -->
<svg version="1.1" id="Logo_00000112621688257139055760000007168177916649741192_"
	 xmlns="http://www.w3.org/2000/svg" xmlns:xlink="http://www.w3.org/1999/xlink" x="0px" y="0px" viewBox="0 0 767.1 249.4"
	 style="enable-background:new 0 0 767.1 249.4;" xml:space="preserve">
<style type="text/css">
	.st0{fill:url(#SVGID_1_);}
	.st1{fill:url(#SVGID_00000056420367549350003980000011774022041704509879_);}
	.st2{fill:url(#SVGID_00000048470095485541761410000007598948990701271196_);}
	.st3{fill:url(#SVGID_00000001630366911843388070000012480000524405047475_);}
	.st4{fill:#38B6FF;}
	.st5{fill:#7ED957;}
	.st6{enable-background:new    ;}
	.st7{fill:#2C3E50;}
</style>
<g id="Logo">
	<g>
		<linearGradient id="SVGID_1_" gradientUnits="userSpaceOnUse" x1="52.3695" y1="252.1193" x2="212.6247" y2="91.8641">
			<stop  offset="0" style="stop-color:#38B6FF"/>
			<stop  offset="1" style="stop-color:#025984"/>
		</linearGradient>
		<path class="st0" d="M268.4,152.5c-2.3-0.6-3.5-0.9-7.9-1.8c-4.4-0.8-11.6-0.8-14.2-0.7c-2.5,0.1-5.6,0.5-11.2,1.4
			c-5.6,0.9-14.6,4-17.7,5.2c-3.1,1.1-6.7,2.7-11.8,5.1c-5.2,2.4-16.8,8.9-18.9,10.2c-2.1,1.3-17.6,10.8-17.6,10.8
			s-20,12.6-22.6,14.2c-2.6,1.6-15.1,8.4-15.1,8.4l0,0c0,0,0,0,0,0c-6.1,3.2-12.4,6-18.4,8.1c-9.6,5.1-22.8,8-40.5,7.9
			c-28.9-0.2-59.3-19.4-71.8-44.8c5.2,36.1,35.6,73.2,86.1,72.9c0.2,0,0.4,0,0.6,0c0,0,0.1,0,0.1,0c10.2,0.3,23.6-3.7,28-5
			c4.5-1.4,11.9-4.5,17.9-7.5s21.2-12.5,27.4-17.3c6.2-4.8,9.7-7.5,14.5-11.3c4.7-3.8,17-14.1,22.2-18.4c5.2-4.3,14.2-11.2,19.4-15
			c5.3-3.8,9.1-6.2,12.2-7.9c3.2-1.7,7.6-3.9,10.1-5.1c2.4-1.1,4.7-1.9,7.9-3.1s7.9-2.1,9.9-2.5c2.1-0.5,3.3-0.5,6.9-0.9
			c3.5-0.5,12.2,0.2,12.2,0.2S270.7,153.1,268.4,152.5z"/>
		
			<linearGradient id="SVGID_00000044878718936393526020000012844656686606940350_" gradientUnits="userSpaceOnUse" x1="39.7398" y1="94.6099" x2="109.5437" y2="215.5138">
			<stop  offset="0" style="stop-color:#38B6FF"/>
			<stop  offset="1" style="stop-color:#025984"/>
		</linearGradient>
		<path style="fill:url(#SVGID_00000044878718936393526020000012844656686606940350_);" d="M72.6,221.3c17.8,0.1,30.9-2.7,40.5-7.9
			c-8.2,3-15.8,4.9-21.3,5.1c-0.6,0-1.1,0-1.7,0c-1.1,0.1-2.1,0.1-3.2,0.1c-31.4,0-57.9-26.9-57.2-58.2
			c0.7-33.3,26.4-60.7,60.7-62.1c0.8,0,1.5,0,2.3,0c0.2,0,0.5,0,0.7,0c9.4-0.2,19.9,1.6,28.9,5.7c5,1.9,9.7,4.4,13.6,7.3
			C125.6,97,107.3,85.8,84.6,83.9c-0.4,0-0.7-0.1-1.1-0.1c-0.1,0-0.3,0-0.4,0c-0.1,0-0.1,0-0.2,0c-1.3-0.1-2.7-0.1-4-0.1
			C31.8,84.7,1,122.9,0,163.8c-0.1,4.2,0.2,8.4,0.8,12.7C13.3,201.9,43.6,221.1,72.6,221.3z"/>
	</g>
	<g>
		
			<linearGradient id="SVGID_00000139983455179145673670000011463391312344813987_" gradientUnits="userSpaceOnUse" x1="1016.9387" y1="366.3818" x2="923.1313" y2="534.8231" gradientTransform="matrix(-1 0 0 -0.9646 1174.9248 587.038)">
			<stop  offset="0" style="stop-color:#438F4B"/>
			<stop  offset="1" style="stop-color:#7ED957"/>
		</linearGradient>
		<path style="fill:url(#SVGID_00000139983455179145673670000011463391312344813987_);" d="M61.8,180.5c2.4,0.6,3.6,0.9,8.1,1.8
			c4.5,0.8,12.1,0.8,14.7,0.7c2.6-0.1,5.8-0.5,11.6-1.4c5.8-0.9,15.1-4,18.3-5.2c3.2-1.1,6.9-2.7,12.3-5.1
			c5.4-2.4,17.4-8.9,19.6-10.2c2.2-1.3,18.2-10.8,18.2-10.8s20.7-12.6,23.5-14.2c2.7-1.6,15.7-8.4,15.7-8.4l0,0c0,0,0,0,0,0
			c6.3-3.2,12.9-6,19.1-8.1c10-5.1,23.6-8,42-7.9c30,0.2,61.4,19.4,74.4,44.8c-5.4-36.1-36.9-73.2-89.3-72.9c-0.2,0-0.4,0-0.6,0
			c0,0-0.1,0-0.1,0c-10.6-0.3-24.4,3.7-29.1,5c-4.6,1.4-12.3,4.5-18.6,7.5s-21.9,12.5-28.4,17.3c-6.4,4.8-10.1,7.5-15,11.3
			c-4.9,3.8-17.6,14.1-23,18.4c-5.4,4.3-14.7,11.2-20.2,15c-5.5,3.8-9.4,6.2-12.7,7.9c-3.3,1.7-7.9,3.9-10.4,5.1
			c-2.5,1.1-4.9,1.9-8.2,3.1c-3.3,1.1-8.2,2.1-10.3,2.5c-2.1,0.5-3.5,0.5-7.1,0.9c-3.7,0.5-12.6-0.2-12.6-0.2S59.4,179.9,61.8,180.5
			z"/>
		
			<linearGradient id="SVGID_00000119840128339829733180000018431144163151787941_" gradientUnits="userSpaceOnUse" x1="963.1135" y1="474.0473" x2="863.3832" y2="370.6574" gradientTransform="matrix(-1 0 0 -0.9646 1174.9248 587.038)">
			<stop  offset="0" style="stop-color:#438F4B"/>
			<stop  offset="1" style="stop-color:#7ED957"/>
		</linearGradient>
		<path style="fill:url(#SVGID_00000119840128339829733180000018431144163151787941_);" d="M264.8,111.7c-18.4-0.1-32,2.7-42,7.9
			c8.5-3,16.4-4.9,22.1-5.1c0.6,0,1.2,0,1.8,0c1.1-0.1,2.2-0.1,3.3-0.1c32.5,0,60,26.9,59.3,58.2c-0.7,33.3-27.4,60.7-62.9,62.1
			c-0.8,0-1.6,0-2.4,0c-0.2,0-0.5,0-0.7,0c-9.7,0.2-20.6-1.6-29.9-5.7c-5.2-1.9-10-4.4-14.1-7.3c10.5,14.3,29.5,25.5,53,27.4
			c0.4,0,0.8,0.1,1.1,0.1c0.1,0,0.3,0,0.4,0c0.1,0,0.1,0,0.2,0c1.4,0.1,2.8,0.1,4.2,0.1c48.8-1,80.7-39.2,81.8-80.1
			c0.1-4.2-0.2-8.4-0.8-12.7C326.2,131.1,294.8,111.9,264.8,111.7z"/>
	</g>
	<g>
		<path class="st4" d="M77.8,0c-19,0-34.3,15.2-34.3,34.3c0,19,15.2,34.3,34.3,34.3s34.3-15.2,34.3-34.3S96.8,0,77.8,0"/>
		<path class="st5" d="M262.9,0c-19,0-34.3,15.2-34.3,34.3c0,19,15.2,34.3,34.3,34.3s34.3-15.2,34.3-34.3S282,0,262.9,0"/>
	</g>
</g>
<g id="Text">
	<g class="st6">
		<path class="st7" d="M453.9,47.7v64.2c0,13.1-3.5,23-10.4,29.7s-16.8,10-29.8,10c-12.8,0-22.7-3.3-29.7-10s-10.5-16.6-10.5-29.7
			V47.7H386v61.1c0,10.7,2.3,18.5,6.8,23.6c4.5,5,11.6,7.6,21.1,7.6s16.6-2.6,21.1-7.6s6.8-13,6.8-23.6V47.7L453.9,47.7z"/>
		<path class="st7" d="M486.9,150V72.4h10.9l1,17.3l-2.1-1.7c1.7-4.1,3.9-7.4,6.7-10s6-4.4,9.8-5.5s7.4-1.7,11.4-1.7
			c5.5,0,10.7,1,15.2,3.2s8.2,5.4,10.9,9.8s4.1,9.9,4.1,16.6v49.7h-12.5v-45.3c0-8.6-1.8-14.5-5.5-18c-3.7-3.3-8.2-5-13.6-5
			c-3.7,0-7.4,0.9-11.2,2.7c-3.7,1.8-6.8,4.6-9.2,8.5c-2.4,4-3.6,9.2-3.6,15.8V150L486.9,150z"/>
		<path class="st7" d="M593.9,57.5c-2.8,0-5-0.9-6.8-2.6c-1.7-1.7-2.6-4-2.6-6.8s0.9-5,2.6-6.8c1.7-1.7,4-2.6,6.8-2.6s5,0.9,6.8,2.6
			c1.7,1.7,2.6,4,2.6,6.8s-0.9,5-2.6,6.8C598.9,56.7,596.7,57.5,593.9,57.5z M600,72.4V150h-12.5V72.4H600z"/>
		<path class="st7" d="M677.2,134.2c-1.8,1.8-3.7,3.2-5.9,4.2s-4.8,1.5-7.7,1.5c-3.5,0-6.2-0.9-8.3-2.8c-2.2-1.9-3.2-4.8-3.2-8.5
			V83.1h28.3V72.4h-28.3V50.3l-12.5,3.5v18.6h-15.5v10.7h15.5v47.7c0.1,5,1.2,9,3.2,12.1c2.1,3.1,4.8,5.3,8.1,6.7
			c3.5,1.4,7.1,2.1,11,2.1c4.2,0,8-0.6,11.3-1.8c3.2-1.3,6-3,8.5-5.1L677.2,134.2z"/>
		<path class="st7" d="M767.1,72.4l-36.4,90.7c-1.9,5-4.1,9.1-6.4,12.1s-4.9,5-7.7,6.4c-2.8,1.3-6.2,1.9-9.9,1.9
			c-3.5,0-6.8-0.5-9.8-1.4c-3-1-5.5-2.3-7.8-4l3.5-10.9c2.1,1.9,4.2,3.2,6.6,4.1c2.3,0.9,4.6,1.3,6.9,1.3c2.7,0,5.3-0.8,7.6-2.4
			c2.4-1.7,4.5-5,6.6-10.1l4-10.1l-7.7-18.5l-24.7-59H706l19.4,50.6l4.8,13.9l5.7-15.4L754,72.5L767.1,72.4L767.1,72.4z"/>
	</g>
	<g class="st6">
		<path class="st7" d="M403,170.6h-21.7v13.9h17.2v2.6h-17.2v17h-2.7v-36H403L403,170.6z"/>
		<path class="st7" d="M419.2,176.2c2.6,0,4.8,0.5,6.7,1.7s3.5,2.7,4.6,4.9c1.2,2.1,1.7,4.6,1.7,7.6s-0.5,5.5-1.7,7.6
			s-2.6,3.7-4.6,4.9c-1.9,1.2-4.2,1.7-6.7,1.7c-2.6,0-4.8-0.5-6.7-1.7s-3.5-2.7-4.6-4.9c-1.2-2.1-1.7-4.6-1.7-7.6s0.5-5.5,1.7-7.6
			s2.6-3.7,4.6-4.9C414.4,176.7,416.6,176.2,419.2,176.2z M419.2,178.5c-2.1,0-3.9,0.5-5.4,1.4s-2.7,2.3-3.6,4.1s-1.3,3.9-1.3,6.3
			s0.4,4.5,1.3,6.3s2.1,3.1,3.6,4.1c1.5,0.9,3.3,1.4,5.4,1.4s3.9-0.5,5.4-1.4s2.7-2.3,3.6-4.1s1.3-3.9,1.3-6.3s-0.4-4.6-1.3-6.3
			c-0.9-1.8-2.1-3.1-3.6-4.1C423,179.1,421.2,178.5,419.2,178.5z"/>
		<path class="st7" d="M450.8,204.5c-1.9,0-3.6-0.4-5-1c-1.5-0.6-2.7-1.8-3.5-3.2c-0.9-1.4-1.3-3.3-1.3-5.5v-18h2.7v17.3
			c0,2.8,0.6,4.9,2.1,6.2s3.2,1.9,5.8,1.9c1.4,0,2.7-0.3,4-0.8c1.2-0.5,2.2-1.2,3-2.1s1.4-1.9,1.9-3.1s0.6-2.4,0.6-3.7v-15.8h2.7
			v27.1h-2.4l-0.1-5.7c-0.8,1.9-2.1,3.5-3.9,4.5C455.4,203.8,453.4,204.5,450.8,204.5L450.8,204.5z"/>
		<path class="st7" d="M474.8,203.8v-27.1h2.4l0.3,6.8l-0.4-0.4c0.5-1.5,1.3-2.7,2.3-3.7s2.2-1.8,3.6-2.3s3-0.8,4.6-0.8
			c2.1,0,3.9,0.4,5.4,1.2s2.8,1.9,3.7,3.3c0.9,1.5,1.3,3.3,1.3,5.7v17.6h-2.7v-16.7c0-3-0.8-5.1-2.2-6.6c-1.4-1.4-3.3-2.1-5.8-2.1
			c-1.7,0-3.3,0.4-4.8,1.2c-1.4,0.8-2.7,1.9-3.6,3.3c-0.9,1.5-1.4,3.3-1.4,5.4v15.3h-2.8v-0.1L474.8,203.8z"/>
		<path class="st7" d="M519.2,204.5c-2.3,0-4.5-0.5-6.3-1.7c-1.9-1.2-3.3-2.7-4.4-4.9c-1-2.1-1.5-4.6-1.5-7.6s0.5-5.5,1.7-7.7
			c1.2-2.1,2.7-3.7,4.6-4.8c1.9-1.2,4-1.7,6.3-1.7c2.6,0,4.8,0.6,6.6,2.1c1.8,1.3,3,3.2,3.6,5.7l-0.4,0.3v-19.8h2.7v39.7h-2.4
			l-0.1-7.6l0.4-0.1c-0.4,1.8-1,3.2-1.9,4.5c-1,1.3-2.2,2.2-3.7,2.8C522.5,204.1,520.9,204.5,519.2,204.5L519.2,204.5z M519.5,202.1
			c1.9,0,3.6-0.5,5-1.4s2.6-2.3,3.3-4.1c0.8-1.8,1.3-4,1.3-6.3c0-2.4-0.4-4.5-1.3-6.2c-0.8-1.7-1.9-3.1-3.3-4s-3.1-1.4-5-1.4
			c-3.1,0-5.5,1-7.4,3.2c-1.8,2.1-2.7,5-2.7,8.6s0.9,6.4,2.7,8.6C514,201,516.4,202.1,519.5,202.1L519.5,202.1z"/>
		<path class="st7" d="M559.6,186c0-2.3-0.6-4.2-1.9-5.5s-3.1-1.9-5.4-1.9c-2.1,0-3.9,0.4-5.3,1.3c-1.5,0.9-2.6,2.3-3.3,4.4
			l-2.2-1.4c0.8-2.2,2.2-3.9,4-5c1.9-1.2,4.1-1.8,6.9-1.8c2.1,0,3.7,0.4,5.3,1c1.5,0.6,2.7,1.8,3.5,3.1c0.8,1.4,1.3,3.1,1.3,5.1
			v13.6c0,1.9,0.9,2.8,2.6,2.8c0.8,0,1.4-0.1,1.9-0.4l-0.1,2.2c-0.6,0.4-1.4,0.5-2.4,0.5c-0.8,0-1.7-0.1-2.3-0.5
			c-0.8-0.4-1.3-0.9-1.8-1.7s-0.6-1.8-0.6-3.1v-1.4h0.8c-0.4,1.5-1,2.8-2.2,3.9c-1.2,1-2.4,1.8-3.9,2.3c-1.4,0.5-3,0.8-4.4,0.8
			c-1.7,0-3.2-0.3-4.6-0.8c-1.3-0.5-2.4-1.3-3.2-2.3s-1.2-2.3-1.2-3.9c0-2.1,0.6-3.7,2.1-4.9c1.4-1.3,3.2-2.1,5.8-2.6l11.3-2.2v2.3
			l-9.9,1.9c-2.2,0.4-3.7,1-4.8,1.9c-1,0.8-1.5,1.9-1.5,3.5c0,1.5,0.5,2.7,1.7,3.5c1.2,0.9,2.7,1.3,4.8,1.3c1,0,2.1-0.1,3.2-0.4
			c1-0.3,2.1-0.8,3-1.4s1.7-1.4,2.2-2.4c0.5-0.9,0.8-2.2,0.8-3.5V186H559.6z"/>
		<path class="st7" d="M587.1,200c-0.6,0.6-1.3,1.2-2.1,1.5c-0.8,0.4-1.7,0.5-2.7,0.5c-1.5,0-2.7-0.4-3.6-1.3
			c-0.8-0.9-1.3-2.2-1.3-3.9v-17.6h10.1v-2.6h-10.1V169l-2.7,0.8v6.8h-5.4v2.3h5.4v18c0,1.7,0.3,3.1,0.9,4.1s1.4,1.9,2.6,2.4
			c1,0.5,2.3,0.8,3.7,0.8c1.3,0,2.4-0.3,3.6-0.6c1-0.4,1.9-1,2.6-1.7L587.1,200z"/>
		<path class="st7" d="M596.2,171.5c-0.6,0-1.3-0.3-1.7-0.6c-0.4-0.4-0.6-1-0.6-1.7c0-0.6,0.3-1.3,0.6-1.7c0.4-0.4,1-0.6,1.7-0.6
			c0.6,0,1.3,0.3,1.7,0.6c0.4,0.4,0.6,1,0.6,1.7c0,0.6-0.3,1.3-0.6,1.7C597.5,171.2,596.8,171.5,596.2,171.5z M597.6,176.7v27.1
			h-2.7v-27.1H597.6z"/>
		<path class="st7" d="M619.7,176.2c2.6,0,4.8,0.5,6.7,1.7s3.5,2.7,4.6,4.9c1.2,2.1,1.7,4.6,1.7,7.6s-0.5,5.5-1.7,7.6
			s-2.6,3.7-4.6,4.9c-1.9,1.2-4.2,1.7-6.7,1.7c-2.6,0-4.8-0.5-6.7-1.7s-3.5-2.7-4.6-4.9c-1.2-2.1-1.7-4.6-1.7-7.6s0.5-5.5,1.7-7.6
			s2.6-3.7,4.6-4.9C614.9,176.7,617.1,176.2,619.7,176.2z M619.7,178.5c-2.1,0-3.9,0.5-5.4,1.4s-2.7,2.3-3.6,4.1s-1.3,3.9-1.3,6.3
			s0.4,4.5,1.3,6.3s2.1,3.1,3.6,4.1c1.5,0.9,3.3,1.4,5.4,1.4s3.9-0.5,5.4-1.4s2.7-2.3,3.6-4.1s1.3-3.9,1.3-6.3s-0.4-4.6-1.3-6.3
			c-0.9-1.8-2.1-3.1-3.6-4.1C623.5,179.1,621.7,178.5,619.7,178.5z"/>
		<path class="st7" d="M641.8,203.8v-27.1h2.4l0.3,6.8l-0.4-0.4c0.5-1.5,1.3-2.7,2.3-3.7s2.2-1.8,3.6-2.3s3-0.8,4.6-0.8
			c2.1,0,3.9,0.4,5.4,1.2s2.8,1.9,3.7,3.3c0.9,1.5,1.3,3.3,1.3,5.7v17.6h-2.7v-16.7c0-3-0.8-5.1-2.2-6.6c-1.4-1.4-3.3-2.1-5.8-2.1
			c-1.7,0-3.3,0.4-4.8,1.2c-1.4,0.8-2.7,1.9-3.6,3.3c-0.9,1.5-1.4,3.3-1.4,5.4v15.3h-2.8v-0.1L641.8,203.8z"/>
	</g>
</g>
</svg>
