<?xml version="1.0" encoding="utf-8"?>
<!-- Generator: Adobe Illustrator 25.2.2, SVG Export Plug-In . SVG Version: 6.00 Build 0)  -->
<svg version="1.1" xmlns="http://www.w3.org/2000/svg" xmlns:xlink="http://www.w3.org/1999/xlink" x="0px" y="0px"
	 viewBox="0 0 1966.5 562.5" style="enable-background:new 0 0 1966.5 562.5;" xml:space="preserve">
<style type="text/css">
	.st0{display:none;}
	.st1{display:inline;fill:none;}
	.st2{display:inline;fill:#71150E;}
	.st3{display:inline;fill:#A2A0A0;}
	.st4{display:inline;}
	.st5{fill:#71150E;}
	.st6{fill:#931914;}
	.st7{fill:none;}
	.st8{fill:#A2A0A0;}
	.st9{fill:#551110;}
</style>
<g id="Ebene_1" class="st0">
	<path class="st1" d="M518.3,341.9c1.6-5,2.9-10.1,4.1-15.3h-34C498.2,331.5,508.2,336.6,518.3,341.9z"/>
	<path class="st1" d="M488.5,223.8h33.9c-1.2-5.2-2.5-10.3-4.1-15.3C508.2,213.8,498.3,218.9,488.5,223.8z"/>
	<path class="st2" d="M522.5,223.8h57.3c-2.7-14.5-6.5-28.7-11.4-42.4c-17.2,9.6-34,18.7-50,27.1
		C519.9,213.5,521.2,218.6,522.5,223.8z"/>
	<path class="st2" d="M304.2,499.5c-105.2,0-193.6-72.8-217.7-170.6c-18.3-0.8-37.5-1.4-57.7-1.7
		c24.4,129.8,138.6,228.4,275.4,228.4c84.9,0,161-38,212.4-97.7c-17.7-9.8-34.6-18.9-50.8-27.4C425,472.9,367.7,499.5,304.2,499.5z"
		/>
	<path class="st2" d="M304.2,50.9c63.4,0,120.8,26.5,161.6,69c16.2-8.4,33.1-17.6,50.8-27.4C465.2,32.8,389.1-5.1,304.2-5.1
		c-136.8,0-251,98.6-275.4,228.4c20.2-0.4,39.4-0.9,57.7-1.7C110.6,123.7,199,50.9,304.2,50.9z"/>
	<path class="st2" d="M522.5,326.6c-1.2,5.2-2.5,10.3-4.1,15.3c16,8.4,32.8,17.5,50,27.1c4.9-13.7,8.7-27.8,11.4-42.4H522.5z"/>
	<path class="st3" d="M127.9,219.2c115.2-8.4,196.9-30.3,300.8-80.6c-32.9-30-76.5-48.4-124.5-48.4
		C221.6,90.2,151.6,144.4,127.9,219.2z"/>
	<path class="st3" d="M304.2,460.2c48,0,91.6-18.5,124.5-48.4c-104-50.3-185.6-72.1-300.8-80.6C151.6,406,221.6,460.2,304.2,460.2z"
		/>
	
		<image style="overflow:visible;opacity:0.3;" width="358" height="152" xlink:href="3D8B43D314654666.png"  transform="matrix(2.2426 0 0 2.2426 -48.9863 230.3484)">
	</image>
	<g class="st4">
		
			<image style="display:none;overflow:visible;opacity:0.3;" width="383" height="105" xlink:href="3D8B43D31465466A.png"  transform="matrix(2.2426 0 0 2.2426 -48.9863 191.7381)">
		</image>
		<path class="st5" d="M591.1,408.8c-82.8-47.3-149.4-81.2-213-105.2h241.2l-14,38.4c30.6-26.7,80-52,119.8-66.7
			c-39.8-14.8-89.2-39.8-119.8-66.5l14,38.8H-32v55.6c272,0,366.6,23.4,595.2,153.9l-31.4,26.4c39.9-7.8,95.2-4.9,137,2.2
			c-27.1-32.7-57.3-79.1-70.4-117.5L591.1,408.8z"/>
	</g>
	<g class="st4">
		
			<image style="display:none;overflow:visible;opacity:0.3;" width="358" height="152" xlink:href="3D8B43D31465466D.png"  transform="matrix(2.2426 0 0 2.2426 -48.9863 47.8968)">
		</image>
		<path class="st6" d="M668.8,64.7c-41.8,7.1-97.2,10-137.1,2.2l31.3,26.4C334.5,223.8,240.3,247.2-32.2,247.2v56.1
			c282,0,386.1-26,623.3-161.4l7.2,40.5C611.5,143.9,641.7,97.4,668.8,64.7z"/>
	</g>
	<text transform="matrix(1 0 0 1 38.9678 712.0618)" class="st4"><tspan x="0" y="0" class="st5" style="font-family:'Avenir-Light'; font-size:124.4458px;">Open</tspan><tspan x="318.2" y="0" class="st9" style="font-family:'Avenir-Medium'; font-size:124.4458px;">DDS</tspan></text>
</g>
<g id="Ebene_1_Kopie" class="st0">
	
		<image style="overflow:visible;opacity:0.3;" width="358" height="152" xlink:href="3D8B43D31465466E.png"  transform="matrix(2.2426 0 0 2.2426 -48.9863 230.3484)">
	</image>
	<g class="st4">
		<path class="st7" d="M518.3,341.9c1.6-5,2.9-10.1,4.1-15.3h-34C498.2,331.5,508.2,336.6,518.3,341.9z"/>
		<path class="st7" d="M488.5,223.8h33.9c-1.2-5.2-2.5-10.3-4.1-15.3C508.2,213.8,498.3,218.9,488.5,223.8z"/>
		<path class="st5" d="M522.5,223.8h57.3c-2.7-14.5-6.5-28.7-11.4-42.4c-17.2,9.6-34,18.7-50,27.1
			C519.9,213.5,521.2,218.6,522.5,223.8z"/>
		<path class="st5" d="M304.2,499.5c-105.2,0-193.6-72.8-217.7-170.6c-18.3-0.8-37.5-1.4-57.7-1.7
			c24.4,129.8,138.6,228.4,275.4,228.4c84.9,0,161-38,212.4-97.7c-17.7-9.8-34.6-18.9-50.8-27.4C425,472.9,367.7,499.5,304.2,499.5z
			"/>
		<path class="st5" d="M304.2,50.9c63.4,0,120.8,26.5,161.6,69c16.2-8.4,33.1-17.6,50.8-27.4C465.2,32.8,389.1-5.1,304.2-5.1
			c-136.8,0-251,98.6-275.4,228.4c20.2-0.4,39.4-0.9,57.7-1.7C110.6,123.7,199,50.9,304.2,50.9z"/>
		<path class="st5" d="M522.5,326.6c-1.2,5.2-2.5,10.3-4.1,15.3c16,8.4,32.8,17.5,50,27.1c4.9-13.7,8.7-27.8,11.4-42.4H522.5z"/>
		<path class="st8" d="M127.9,219.2c115.2-8.4,196.9-30.3,300.8-80.6c-32.9-30-76.5-48.4-124.5-48.4
			C221.6,90.2,151.6,144.4,127.9,219.2z"/>
		<path class="st8" d="M304.2,460.2c48,0,91.6-18.5,124.5-48.4c-104-50.3-185.6-72.1-300.8-80.6C151.6,406,221.6,460.2,304.2,460.2z
			"/>
		<g>
			
				<image style="display:none;overflow:visible;opacity:0.3;" width="383" height="105" xlink:href="3D8B43D31465466C.png"  transform="matrix(2.2426 0 0 2.2426 -48.9863 191.7381)">
			</image>
			<path class="st5" d="M591.1,408.8c-82.8-47.3-149.4-81.2-213-105.2h241.2l-14,38.4c30.6-26.7,80-52,119.8-66.7
				c-39.8-14.8-89.2-39.8-119.8-66.5l14,38.8H-32v55.6c272,0,366.6,23.4,595.2,153.9l-31.4,26.4c39.9-7.8,95.2-4.9,137,2.2
				c-27.1-32.7-57.3-79.1-70.4-117.5L591.1,408.8z"/>
		</g>
		<g>
			
				<image style="display:none;overflow:visible;opacity:0.3;" width="358" height="152" xlink:href="3D8B43D31465466B.png"  transform="matrix(2.2426 0 0 2.2426 -48.9863 47.8968)">
			</image>
			<path class="st6" d="M668.8,64.7c-41.8,7.1-97.2,10-137.1,2.2l31.3,26.4C334.5,223.8,240.3,247.2-32.2,247.2v56.1
				c282,0,386.1-26,623.3-161.4l7.2,40.5C611.5,143.9,641.7,97.4,668.8,64.7z"/>
		</g>
	</g>
	<g class="st4">
		<path class="st5" d="M35.6,666.2c0-6.3,1.1-12.2,3.2-17.5c2.1-5.3,5-9.9,8.8-13.8c3.8-3.9,8.3-6.9,13.6-9.1
			c5.3-2.2,11.1-3.3,17.4-3.3c6.3,0,12.2,1.1,17.4,3.3c5.3,2.2,9.8,5.2,13.6,9.1c3.8,3.9,6.7,8.5,8.8,13.8
			c2.1,5.3,3.2,11.2,3.2,17.5c0,6.3-1.1,12.2-3.2,17.5c-2.1,5.4-5,10-8.8,13.9c-3.8,3.9-8.3,6.9-13.6,9c-5.3,2.2-11.1,3.2-17.4,3.2
			c-6.3,0-12.2-1.1-17.4-3.2c-5.3-2.2-9.8-5.2-13.6-9c-3.8-3.9-6.7-8.5-8.8-13.9C36.7,678.4,35.6,672.5,35.6,666.2z M43.4,666.2
			c0,5.2,0.8,10,2.5,14.4c1.6,4.5,4,8.3,7,11.6c3.1,3.3,6.8,5.9,11.1,7.7c4.3,1.9,9.2,2.8,14.6,2.8c5.4,0,10.3-0.9,14.6-2.8
			c4.3-1.9,8-4.5,11.1-7.7c3.1-3.3,5.4-7.2,7-11.6c1.6-4.5,2.5-9.3,2.5-14.4c0-5.2-0.8-10-2.5-14.4c-1.6-4.5-4-8.3-7-11.6
			c-3.1-3.3-6.8-5.9-11.1-7.7c-4.3-1.9-9.2-2.8-14.6-2.8c-5.4,0-10.3,0.9-14.6,2.8c-4.3,1.9-8,4.5-11.1,7.7c-3.1,3.3-5.4,7.2-7,11.6
			C44.2,656.2,43.4,661,43.4,666.2z"/>
		<path class="st5" d="M138.9,653.5h7v9.5h0.2c1.1-1.9,2.5-3.5,4.1-4.9c1.6-1.4,3.4-2.5,5.3-3.4c1.9-0.9,3.9-1.6,6-2
			c2.1-0.4,4.2-0.6,6.2-0.6c4.1,0,8,0.7,11.4,2.1c3.5,1.4,6.5,3.4,9,5.9c2.5,2.5,4.5,5.6,5.9,9c1.4,3.5,2.1,7.3,2.1,11.4
			c0,4.1-0.7,8-2.1,11.4c-1.4,3.5-3.4,6.5-5.9,9c-2.5,2.5-5.6,4.5-9,5.9c-3.5,1.4-7.3,2.1-11.4,2.1c-2,0-4.1-0.2-6.2-0.6
			c-2.1-0.4-4.1-1.1-6-2c-1.9-0.9-3.7-2-5.3-3.4c-1.6-1.4-3-3-4.1-4.9H146v36.3h-7V653.5z M145.3,680.6c0,3.1,0.6,5.9,1.8,8.6
			c1.2,2.7,2.8,5,4.8,7c2,2,4.4,3.6,7.2,4.8c2.7,1.2,5.7,1.8,8.9,1.8c3.3,0,6.3-0.6,8.9-1.8c2.7-1.2,4.9-2.8,6.8-4.8
			c1.9-2,3.3-4.3,4.3-7c1-2.7,1.5-5.6,1.5-8.6c0-3.1-0.5-5.9-1.5-8.6c-1-2.7-2.4-5-4.3-7c-1.9-2-4.1-3.6-6.8-4.8
			c-2.7-1.2-5.6-1.8-8.9-1.8c-3.2,0-6.2,0.6-8.9,1.8c-2.7,1.2-5.1,2.8-7.2,4.8c-2,2-3.6,4.3-4.8,7
			C145.8,674.7,145.3,677.6,145.3,680.6z"/>
		<path class="st5" d="M263.6,697.5c-2.7,4.1-6.1,7.1-10.2,8.9c-4,1.8-8.5,2.7-13.3,2.7c-4.1,0-7.9-0.7-11.3-2.1
			c-3.4-1.4-6.3-3.4-8.7-5.9c-2.4-2.5-4.3-5.6-5.6-9c-1.3-3.5-1.9-7.3-1.9-11.6c0-4.1,0.7-7.8,2-11.3c1.3-3.4,3.2-6.4,5.6-9
			c2.4-2.5,5.3-4.5,8.6-6c3.3-1.4,6.9-2.2,10.9-2.2c4.1,0,7.8,0.7,11,2.2c3.2,1.4,5.8,3.4,8,5.8c2.2,2.4,3.8,5.1,4.9,8.2
			c1.1,3.1,1.6,6.1,1.6,9.3v4.9h-45.6c0,1.5,0.3,3.4,0.9,5.7c0.6,2.3,1.7,4.6,3.2,6.8c1.6,2.2,3.7,4.1,6.3,5.6
			c2.6,1.6,6,2.3,10.2,2.3c3.6,0,7.1-0.9,10.4-2.6c3.4-1.7,5.9-4.1,7.7-7L263.6,697.5z M258.2,676c0-2.4-0.5-4.7-1.5-6.8
			c-1-2.1-2.3-4-4-5.6c-1.7-1.6-3.7-2.9-6-3.8c-2.3-0.9-4.8-1.4-7.3-1.4c-3.8,0-7,0.8-9.6,2.3c-2.5,1.6-4.6,3.4-6,5.4
			c-1.5,2-2.5,4-3.2,5.9c-0.6,1.9-0.9,3.2-0.9,3.9H258.2z"/>
		<path class="st5" d="M284.5,668.8c0-1,0-2.2-0.1-3.7c-0.1-1.4-0.1-2.9-0.2-4.4c0-1.5-0.1-2.9-0.2-4.2c-0.1-1.3-0.1-2.3-0.1-3h7
			c0.1,2,0.1,4,0.2,5.9c0,1.9,0.1,3.1,0.3,3.6h0.4c1.4-3,3.8-5.5,7-7.7c3.3-2.2,7.1-3.2,11.5-3.2c4.2,0,7.7,0.7,10.3,2
			c2.7,1.3,4.8,3.1,6.3,5.2c1.5,2.2,2.6,4.6,3.2,7.5c0.6,2.8,0.9,5.7,0.9,8.7v32.3h-7v-31.9c0-2.2-0.2-4.3-0.6-6.4
			c-0.4-2.1-1.1-3.9-2.1-5.6c-1-1.6-2.3-3-4.1-3.9c-1.8-1-4.1-1.5-6.9-1.5c-2.6,0-5,0.5-7.3,1.4c-2.3,0.9-4.3,2.3-6,4.1
			c-1.7,1.8-3,4.1-4,6.9c-1,2.8-1.5,6-1.5,9.8v27.1h-7V668.8z"/>
		<path class="st9" d="M352.7,624.6h29c5.9,0,11,0.7,15.4,2c4.4,1.3,8.3,3.1,11.5,5.3c3.2,2.2,5.9,4.8,8.1,7.7
			c2.1,2.9,3.9,5.9,5.1,8.9c1.3,3.1,2.2,6.1,2.7,9.2c0.5,3.1,0.8,5.9,0.8,8.5c0,5.3-1,10.5-2.9,15.4c-2,5-4.9,9.4-8.7,13.3
			c-3.8,3.9-8.6,7-14.3,9.3c-5.7,2.3-12.2,3.5-19.7,3.5h-27.1V624.6z M364,697.2h14.2c4.8,0,9.3-0.6,13.6-1.9
			c4.3-1.3,8-3.2,11.2-5.8c3.2-2.6,5.8-5.8,7.6-9.7c1.9-3.9,2.8-8.4,2.8-13.6c0-2.7-0.4-5.8-1.3-9.3c-0.9-3.6-2.5-6.9-4.9-10.2
			c-2.4-3.2-5.7-5.9-9.9-8.2c-4.2-2.2-9.7-3.3-16.4-3.3H364V697.2z"/>
		<path class="st9" d="M440.3,624.6h29c5.9,0,11,0.7,15.4,2c4.4,1.3,8.3,3.1,11.5,5.3c3.2,2.2,5.9,4.8,8.1,7.7
			c2.2,2.9,3.9,5.9,5.1,8.9c1.2,3.1,2.2,6.1,2.7,9.2c0.5,3.1,0.8,5.9,0.8,8.5c0,5.3-1,10.5-2.9,15.4c-2,5-4.9,9.4-8.7,13.3
			c-3.8,3.9-8.6,7-14.3,9.3c-5.7,2.3-12.2,3.5-19.7,3.5h-27.1V624.6z M451.5,697.2h14.2c4.8,0,9.3-0.6,13.6-1.9
			c4.3-1.3,8-3.2,11.2-5.8c3.2-2.6,5.8-5.8,7.6-9.7c1.9-3.9,2.8-8.4,2.8-13.6c0-2.7-0.4-5.8-1.3-9.3c-0.9-3.6-2.5-6.9-4.9-10.2
			c-2.4-3.2-5.7-5.9-9.9-8.2c-4.2-2.2-9.7-3.3-16.4-3.3h-16.9V697.2z"/>
		<path class="st9" d="M532.8,690.4c2,3.1,4.6,5.3,7.8,6.8c3.2,1.4,6.4,2.2,9.8,2.2c1.9,0,3.8-0.3,5.8-0.9c2-0.6,3.7-1.5,5.3-2.6
			c1.6-1.2,2.9-2.6,3.9-4.3c1-1.7,1.5-3.7,1.5-6c0-3.2-1-5.7-3.1-7.3c-2-1.7-4.6-3.1-7.6-4.2c-3-1.1-6.3-2.2-9.9-3.3
			c-3.6-1.1-6.8-2.5-9.9-4.4c-3-1.9-5.5-4.4-7.6-7.6c-2-3.2-3.1-7.5-3.1-12.9c0-2.4,0.5-5,1.6-7.7c1.1-2.7,2.7-5.2,5-7.5
			c2.3-2.3,5.2-4.2,8.7-5.7c3.6-1.5,7.8-2.3,12.9-2.3c4.5,0,8.9,0.6,13,1.9c4.1,1.3,7.8,3.8,10.9,7.6l-9.2,8.3c-1.4-2.2-3.4-4-6-5.3
			c-2.6-1.3-5.5-2-8.8-2c-3.1,0-5.7,0.4-7.8,1.2c-2.1,0.8-3.7,1.9-5,3.2c-1.3,1.3-2.1,2.7-2.6,4.2c-0.5,1.5-0.8,2.9-0.8,4.1
			c0,3.5,1,6.2,3.1,8.1c2,1.9,4.6,3.4,7.6,4.6c3,1.2,6.3,2.2,9.9,3.2c3.6,0.9,6.8,2.3,9.9,3.9c3,1.7,5.5,4,7.6,6.8
			c2,2.9,3.1,6.8,3.1,11.8c0,4-0.8,7.6-2.3,10.8c-1.5,3.2-3.6,5.9-6.2,8.1c-2.6,2.2-5.6,3.9-9.2,5c-3.5,1.2-7.3,1.8-11.3,1.8
			c-5.3,0-10.4-0.9-15.1-2.8c-4.8-1.9-8.6-4.8-11.4-8.7L532.8,690.4z"/>
	</g>
</g>
<g id="Ebene_1_Kopie_Kopie">
	
		<image style="display:none;overflow:visible;opacity:0.3;" width="358" height="152" xlink:href="3D8B43D314654665.png"  transform="matrix(2.2426 0 0 2.2426 -48.9863 230.3484)">
	</image>
	
		<image style="display:none;overflow:visible;opacity:0.3;" width="383" height="105" xlink:href="3D8B43D314654667.png"  transform="matrix(2.2426 0 0 2.2426 -48.9863 191.7381)">
	</image>
	
		<image style="display:none;overflow:visible;opacity:0.3;" width="358" height="152" xlink:href="3D8B43D314654664.png"  transform="matrix(2.2426 0 0 2.2426 -48.9863 47.8968)">
	</image>
	<path class="st7" d="M552.3,349.5c1.6-5,2.9-10.2,4.1-15.4h-34.1C532.1,339,542.1,344.2,552.3,349.5z"/>
	<path class="st7" d="M522.4,231h34.1c-1.2-5.2-2.6-10.3-4.1-15.3C542.1,221,532.1,226.1,522.4,231z"/>
	<path class="st5" d="M556.4,231h57.5c-2.7-14.6-6.5-28.8-11.4-42.5c-17.3,9.6-34.1,18.8-50.2,27.2
		C553.9,220.7,555.2,225.9,556.4,231z"/>
	<path class="st5" d="M337.5,507.6c-105.5,0-194.3-73-218.4-171.2c-18.3-0.8-37.6-1.4-57.9-1.7c24.5,130.3,139,229.2,276.3,229.2
		c85.1,0,161.5-38.1,213.1-98c-17.7-9.8-34.7-19-51-27.4C458.7,480.9,401.1,507.6,337.5,507.6z"/>
	<path class="st5" d="M337.5,57.6c63.7,0,121.2,26.6,162.1,69.3c16.3-8.5,33.3-17.6,51-27.4c-51.6-60-128-98.1-213.1-98.1
		c-137.3,0-251.8,98.9-276.3,229.2c20.3-0.4,39.6-0.9,57.9-1.7C143.2,130.6,232,57.6,337.5,57.6z"/>
	<path class="st5" d="M556.4,334.1c-1.2,5.2-2.6,10.3-4.1,15.4c16.1,8.4,32.9,17.6,50.2,27.2c4.9-13.7,8.7-27.9,11.4-42.5H556.4z"/>
	<path class="st8" d="M160.6,226.4c115.6-8.4,197.5-30.4,301.8-80.8c-33-30.1-76.7-48.6-124.9-48.6
		C254.6,97,184.4,151.4,160.6,226.4z"/>
	<path class="st8" d="M337.5,468.2c48.2,0,91.9-18.5,124.9-48.6c-104.3-50.4-186.2-72.4-301.8-80.8
		C184.4,413.8,254.6,468.2,337.5,468.2z"/>
	<path class="st5" d="M625.3,416.6c-83.1-47.4-149.9-81.4-213.7-105.5h242l-14,38.6c30.7-26.8,80.3-52.1,120.2-67
		c-39.9-14.8-89.5-39.9-120.2-66.7l14,38.9H0.2v55.8c272.9,0,367.8,23.5,597.1,154.4l-31.5,26.5c40-7.8,95.5-4.9,137.5,2.2
		c-27.2-32.8-57.4-79.4-70.7-117.9L625.3,416.6z"/>
	<path class="st6" d="M703.2,71.4c-42,7.1-97.5,10-137.5,2.2l31.4,26.5C367.8,231,273.3,254.5,0,254.5v56.2
		c283,0,387.3-26.1,625.3-161.9l7.3,40.6C645.8,150.9,676.1,104.2,703.2,71.4z"/>
	<g>
		<g>
			<path class="st5" d="M810.5,265.4c0-12.6,2.1-24.3,6.3-34.9c4.2-10.6,10.1-19.8,17.6-27.5c7.5-7.7,16.5-13.8,27-18.1
				c10.5-4.4,22.1-6.6,34.8-6.6s24.2,2.2,34.8,6.6c10.5,4.4,19.6,10.4,27,18.1c7.5,7.7,13.3,16.9,17.6,27.5
				c4.2,10.6,6.3,22.2,6.3,34.9c0,12.6-2.1,24.3-6.3,35c-4.2,10.7-10.1,19.9-17.6,27.6c-7.5,7.7-16.5,13.7-27,18
				c-10.5,4.3-22.1,6.4-34.8,6.4s-24.2-2.1-34.8-6.4c-10.5-4.3-19.6-10.3-27-18c-7.5-7.7-13.3-16.9-17.6-27.6
				C812.6,289.7,810.5,278,810.5,265.4z M825.9,265.4c0,10.3,1.6,19.9,4.9,28.8c3.3,8.9,8,16.6,14.1,23.2
				c6.1,6.6,13.5,11.7,22.1,15.5c8.7,3.7,18.4,5.6,29.2,5.6c10.8,0,20.5-1.9,29.2-5.6c8.7-3.7,16-8.9,22.1-15.5
				c6.1-6.6,10.8-14.3,14-23.2c3.3-8.9,4.9-18.5,4.9-28.8c0-10.3-1.6-19.9-4.9-28.8c-3.3-8.9-8-16.6-14-23.2
				c-6.1-6.6-13.5-11.7-22.1-15.5c-8.7-3.7-18.4-5.6-29.2-5.6c-10.8,0-20.5,1.9-29.2,5.6c-8.7,3.7-16,8.9-22.1,15.5
				c-6.1,6.6-10.8,14.3-14.1,23.2C827.6,245.5,825.9,255.1,825.9,265.4z"/>
			<path class="st5" d="M1016.5,240.1h14.1v19h0.5c2.2-3.7,4.9-7,8.2-9.7c3.3-2.7,6.8-5,10.7-6.8c3.8-1.8,7.8-3.1,12.1-4
				c4.2-0.9,8.3-1.3,12.4-1.3c8.3,0,15.9,1.4,22.8,4.2c6.9,2.8,13,6.8,18,11.8c5.1,5.1,9,11.1,11.8,18c2.8,7,4.2,14.6,4.2,22.8
				c0,8.3-1.4,15.9-4.2,22.8c-2.8,6.9-6.8,13-11.8,18c-5.1,5.1-11.1,9-18,11.8c-6.9,2.8-14.6,4.2-22.8,4.2c-4.1,0-8.2-0.4-12.4-1.3
				c-4.2-0.9-8.2-2.2-12.1-4c-3.8-1.8-7.4-4.1-10.7-6.8c-3.3-2.7-6-6-8.2-9.7h-0.5v72.4h-14.1V240.1z M1029.2,294.2
				c0,6.1,1.2,11.8,3.5,17.2c2.3,5.4,5.5,10.1,9.6,14c4.1,4,8.8,7.1,14.3,9.5c5.5,2.3,11.4,3.5,17.8,3.5c6.6,0,12.5-1.2,17.8-3.5
				c5.3-2.3,9.8-5.5,13.6-9.5c3.7-4,6.6-8.7,8.5-14c1.9-5.4,2.9-11.1,2.9-17.2c0-6.1-1-11.8-2.9-17.2c-2-5.4-4.8-10.1-8.5-14.1
				c-3.7-4-8.3-7.1-13.6-9.5c-5.3-2.3-11.2-3.5-17.8-3.5c-6.4,0-12.3,1.2-17.8,3.5c-5.5,2.3-10.2,5.5-14.3,9.5
				c-4.1,4-7.3,8.7-9.6,14.1C1030.4,282.3,1029.2,288.1,1029.2,294.2z"/>
			<path class="st5" d="M1265.2,327.9c-5.5,8.3-12.2,14.2-20.3,17.8c-8,3.6-16.9,5.4-26.6,5.4c-8.3,0-15.8-1.4-22.5-4.2
				c-6.7-2.8-12.5-6.7-17.3-11.8c-4.8-5.1-8.5-11.1-11.1-18c-2.6-6.9-3.9-14.6-3.9-23.1c0-8.1,1.3-15.6,4-22.5
				c2.7-6.9,6.4-12.8,11.2-17.9c4.8-5.1,10.5-9.1,17.1-11.9c6.6-2.9,13.8-4.3,21.8-4.3c8.3,0,15.6,1.4,21.9,4.3
				c6.3,2.9,11.6,6.7,15.9,11.5c4.3,4.8,7.5,10.2,9.7,16.3c2.2,6.1,3.3,12.3,3.3,18.5v9.8h-90.9c0,3,0.6,6.8,1.8,11.4
				c1.2,4.6,3.3,9.1,6.4,13.5c3.1,4.4,7.3,8.1,12.5,11.2c5.2,3.1,12,4.7,20.3,4.7c7.2,0,14.1-1.7,20.8-5.2
				c6.7-3.4,11.9-8.1,15.5-14.1L1265.2,327.9z M1254.5,285c0-4.8-1-9.4-2.9-13.6c-2-4.2-4.6-7.9-8-11.1c-3.4-3.2-7.3-5.7-11.9-7.6
				c-4.6-1.9-9.5-2.8-14.6-2.8c-7.7,0-14,1.6-19.1,4.7c-5.1,3.1-9.1,6.7-12.1,10.8c-3,4.1-5.1,8-6.3,11.8c-1.2,3.8-1.9,6.4-1.9,7.8
				H1254.5z"/>
			<path class="st5" d="M1306.9,270.5c0-2-0.1-4.5-0.2-7.4c-0.2-2.9-0.3-5.8-0.4-8.8c-0.1-3-0.2-5.7-0.4-8.3c-0.2-2.6-0.2-4.6-0.2-6
				h14c0.2,4.1,0.3,8,0.4,11.7c0.1,3.7,0.3,6.2,0.6,7.3h0.7c2.8-5.9,7.5-11,14-15.3c6.6-4.3,14.2-6.4,22.9-6.4
				c8.4,0,15.3,1.3,20.6,4c5.3,2.7,9.5,6.1,12.5,10.4c3,4.3,5.2,9.3,6.3,14.9c1.2,5.6,1.8,11.4,1.8,17.3v64.4h-14v-63.7
				c0-4.4-0.4-8.6-1.2-12.8c-0.8-4.1-2.1-7.8-4.1-11.1c-2-3.3-4.7-5.9-8.2-7.8c-3.5-1.9-8.1-2.9-13.7-2.9c-5.2,0-10,0.9-14.6,2.7
				c-4.6,1.8-8.6,4.5-11.9,8.2c-3.4,3.7-6,8.3-8,13.8c-2,5.5-2.9,12.1-2.9,19.6v54.1h-14V270.5z"/>
			<path class="st9" d="M1443,182.5h57.8c11.7,0,22,1.3,30.8,4c8.8,2.7,16.5,6.2,22.9,10.7c6.5,4.5,11.9,9.6,16.2,15.3
				c4.3,5.8,7.7,11.7,10.2,17.8c2.5,6.1,4.3,12.2,5.4,18.3c1.1,6.1,1.6,11.7,1.6,16.9c0,10.6-2,20.9-5.9,30.8
				c-3.9,9.9-9.7,18.7-17.3,26.5c-7.7,7.7-17.1,13.9-28.5,18.6c-11.3,4.7-24.4,7-39.2,7H1443V182.5z M1465.4,327.2h28.3
				c9.5,0,18.5-1.3,27.1-3.9c8.5-2.6,16-6.4,22.4-11.6c6.4-5.2,11.5-11.6,15.2-19.3c3.7-7.7,5.6-16.7,5.6-27
				c0-5.3-0.9-11.5-2.6-18.6c-1.7-7.1-5-13.9-9.7-20.3c-4.8-6.4-11.4-11.8-19.8-16.3c-8.4-4.4-19.4-6.7-32.8-6.7h-33.7V327.2z"/>
			<path class="st9" d="M1617.7,182.5h57.8c11.7,0,22,1.3,30.8,4c8.8,2.7,16.5,6.2,22.9,10.7c6.5,4.5,11.9,9.6,16.2,15.3
				c4.3,5.8,7.7,11.7,10.2,17.8c2.5,6.1,4.3,12.2,5.4,18.3c1.1,6.1,1.6,11.7,1.6,16.9c0,10.6-2,20.9-5.9,30.8
				c-3.9,9.9-9.7,18.7-17.3,26.5c-7.7,7.7-17.1,13.9-28.5,18.6c-11.3,4.7-24.4,7-39.2,7h-54.1V182.5z M1640.1,327.2h28.3
				c9.5,0,18.5-1.3,27-3.9c8.5-2.6,16-6.4,22.4-11.6c6.4-5.2,11.5-11.6,15.2-19.3c3.7-7.7,5.6-16.7,5.6-27c0-5.3-0.9-11.5-2.6-18.6
				c-1.7-7.1-5-13.9-9.7-20.3c-4.8-6.4-11.4-11.8-19.8-16.3c-8.4-4.4-19.4-6.7-32.8-6.7h-33.7V327.2z"/>
			<path class="st9" d="M1802.2,313.6c4.1,6.1,9.3,10.6,15.6,13.5c6.3,2.9,12.8,4.3,19.6,4.3c3.7,0,7.6-0.6,11.5-1.8
				c3.9-1.2,7.4-2.9,10.7-5.3c3.2-2.3,5.8-5.2,7.8-8.7c2-3.4,3-7.4,3-11.9c0-6.4-2-11.3-6.1-14.6c-4.1-3.4-9.1-6.2-15.1-8.4
				c-6-2.3-12.6-4.4-19.7-6.6c-7.1-2.1-13.7-5-19.7-8.8c-6-3.8-11-8.8-15.1-15.1c-4.1-6.3-6.1-14.9-6.1-25.6c0-4.8,1.1-10,3.2-15.5
				c2.1-5.5,5.4-10.5,10-15c4.5-4.5,10.3-8.3,17.4-11.4c7.1-3,15.6-4.6,25.6-4.6c9.1,0,17.7,1.3,26,3.7c8.3,2.5,15.5,7.6,21.8,15.2
				l-18.3,16.6c-2.8-4.4-6.8-7.9-11.9-10.5c-5.2-2.7-11-4-17.6-4c-6.3,0-11.4,0.8-15.6,2.5c-4.1,1.6-7.5,3.7-10,6.3
				c-2.5,2.6-4.3,5.4-5.3,8.3c-1,3-1.5,5.7-1.5,8.2c0,7,2,12.4,6.1,16.2c4.1,3.7,9.1,6.8,15.1,9.1c6,2.3,12.6,4.5,19.7,6.3
				c7.1,1.9,13.7,4.5,19.7,7.8c6,3.4,11,7.9,15.1,13.6c4.1,5.7,6.1,13.5,6.1,23.5c0,8-1.5,15.1-4.6,21.5c-3,6.4-7.1,11.8-12.3,16.2
				c-5.1,4.4-11.2,7.7-18.3,10.1c-7,2.3-14.5,3.5-22.5,3.5c-10.6,0-20.7-1.9-30.2-5.6c-9.5-3.7-17.1-9.5-22.7-17.3L1802.2,313.6z"/>
		</g>
		<g>
			<path class="st9" d="M1924.2,188.2h-7.1v-3.8h18.5v3.8h-7.1v19.7h-4.4V188.2z M1940.1,184.4h6.8l6.3,18h0.2l6.3-18h6.8v23.4h-4.4
				v-19.6h-0.1l-6.8,19.6h-3.6l-6.8-19.6h-0.1v19.6h-4.4V184.4z"/>
		</g>
	</g>
</g>
</svg>
